solid OpenSCAD_Model
  facet normal -1 -0 -0
    outer loop
      vertex 0 0 0
      vertex 0 0 6
      vertex 0 30 0
    endloop
  endfacet
  facet normal -1 0 0
    outer loop
      vertex 0 30 0
      vertex 0 0 6
      vertex 0 30 6
    endloop
  endfacet
  facet normal 0 -1 0
    outer loop
      vertex 0 0 6
      vertex 0 0 0
      vertex 24 0 0
    endloop
  endfacet
  facet normal 0 -1 0
    outer loop
      vertex 24 0 6
      vertex 0 0 6
      vertex 24 0 0
    endloop
  endfacet
  facet normal -0 -0 -1
    outer loop
      vertex 6.75261 15.9635 0
      vertex 0 30 0
      vertex 24 0 0
    endloop
  endfacet
  facet normal -0 0 -1
    outer loop
      vertex 24 10 0
      vertex 24.0242 10.5378 0
      vertex 24.0242 10 0
    endloop
  endfacet
  facet normal -0 0 -1
    outer loop
      vertex 56.9372 14.5026 0
      vertex 60 30 0
      vertex 60 0 0
    endloop
  endfacet
  facet normal -0 0 -1
    outer loop
      vertex 36 10 0
      vertex 60 30 0
      vertex 36 0 0
    endloop
  endfacet
  facet normal -0 0 -1
    outer loop
      vertex 35.9036 11.0713 0
      vertex 60 30 0
      vertex 36 10 0
    endloop
  endfacet
  facet normal -0 0 -1
    outer loop
      vertex 35.6174 12.1082 0
      vertex 60 30 0
      vertex 35.9036 11.0713 0
    endloop
  endfacet
  facet normal -0 0 -1
    outer loop
      vertex 35.1507 13.0774 0
      vertex 60 30 0
      vertex 35.6174 12.1082 0
    endloop
  endfacet
  facet normal -0 0 -1
    outer loop
      vertex 34.5184 13.9476 0
      vertex 60 30 0
      vertex 35.1507 13.0774 0
    endloop
  endfacet
  facet normal -0 0 -1
    outer loop
      vertex 33.7409 14.691 0
      vertex 60 30 0
      vertex 34.5184 13.9476 0
    endloop
  endfacet
  facet normal -0 0 -1
    outer loop
      vertex 32.8432 15.2836 0
      vertex 60 30 0
      vertex 33.7409 14.691 0
    endloop
  endfacet
  facet normal 0 0 -1
    outer loop
      vertex 0 30 0
      vertex 60 30 0
      vertex 32.8432 15.2836 0
    endloop
  endfacet
  facet normal 0 0 -1
    outer loop
      vertex 0 30 0
      vertex 32.8432 15.2836 0
      vertex 31.8541 15.7063 0
    endloop
  endfacet
  facet normal -0 -0 -1
    outer loop
      vertex 29.7308 15.994 0
      vertex 0 30 0
      vertex 30.8054 15.9457 0
    endloop
  endfacet
  facet normal 0 -0 -1
    outer loop
      vertex 28.6649 15.8496 0
      vertex 0 30 0
      vertex 29.7308 15.994 0
    endloop
  endfacet
  facet normal 0 -0 -1
    outer loop
      vertex 27.6418 15.5172 0
      vertex 0 30 0
      vertex 28.6649 15.8496 0
    endloop
  endfacet
  facet normal 0 -0 -1
    outer loop
      vertex 26.6946 15.0074 0
      vertex 0 30 0
      vertex 27.6418 15.5172 0
    endloop
  endfacet
  facet normal 0 -0 -1
    outer loop
      vertex 25.8536 14.3368 0
      vertex 0 30 0
      vertex 26.6946 15.0074 0
    endloop
  endfacet
  facet normal 0 -0 -1
    outer loop
      vertex 25.1459 13.5267 0
      vertex 0 30 0
      vertex 25.8536 14.3368 0
    endloop
  endfacet
  facet normal 0 -0 -1
    outer loop
      vertex 24.5942 12.6033 0
      vertex 0 30 0
      vertex 25.1459 13.5267 0
    endloop
  endfacet
  facet normal 0 -0 -1
    outer loop
      vertex 24.2162 11.5962 0
      vertex 0 30 0
      vertex 24.5942 12.6033 0
    endloop
  endfacet
  facet normal 0 -0 -1
    outer loop
      vertex 24.0242 10.5378 0
      vertex 0 30 0
      vertex 24.2162 11.5962 0
    endloop
  endfacet
  facet normal 0 -0 -1
    outer loop
      vertex 24 10 0
      vertex 0 30 0
      vertex 24.0242 10.5378 0
    endloop
  endfacet
  facet normal 0 0 -1
    outer loop
      vertex 24 0 0
      vertex 0 30 0
      vertex 24 10 0
    endloop
  endfacet
  facet normal 0 0 -1
    outer loop
      vertex 4.62524 13.0354 0
      vertex 24 0 0
      vertex 4.14844 13.1903 0
    endloop
  endfacet
  facet normal 0 -0 -1
    outer loop
      vertex 0 0 0
      vertex 0 30 0
      vertex 3.01577 15.2507 0
    endloop
  endfacet
  facet normal 0 0 -1
    outer loop
      vertex 0 0 0
      vertex 3.01577 15.2507 0
      vertex 3.01577 14.7493 0
    endloop
  endfacet
  facet normal 0 0 -1
    outer loop
      vertex 0 0 0
      vertex 3.01577 14.7493 0
      vertex 3.14045 14.2638 0
    endloop
  endfacet
  facet normal 0 0 -1
    outer loop
      vertex 0 0 0
      vertex 3.14045 14.2638 0
      vertex 3.38197 13.8244 0
    endloop
  endfacet
  facet normal 0 0 -1
    outer loop
      vertex 0 0 0
      vertex 3.38197 13.8244 0
      vertex 3.72515 13.459 0
    endloop
  endfacet
  facet normal -0 0 -1
    outer loop
      vertex 0 0 0
      vertex 3.72515 13.459 0
      vertex 24 0 0
    endloop
  endfacet
  facet normal 0 0 -1
    outer loop
      vertex 3.72515 13.459 0
      vertex 4.14844 13.1903 0
      vertex 24 0 0
    endloop
  endfacet
  facet normal 0 0 -1
    outer loop
      vertex 5.12558 13.0039 0
      vertex 24 0 0
      vertex 4.62524 13.0354 0
    endloop
  endfacet
  facet normal 0 0 -1
    outer loop
      vertex 5.61803 13.0979 0
      vertex 24 0 0
      vertex 5.12558 13.0039 0
    endloop
  endfacet
  facet normal 0 0 -1
    outer loop
      vertex 6.07165 13.3113 0
      vertex 24 0 0
      vertex 5.61803 13.0979 0
    endloop
  endfacet
  facet normal 0 0 -1
    outer loop
      vertex 53.7252 13.459 0
      vertex 60 0 0
      vertex 53.382 13.8244 0
    endloop
  endfacet
  facet normal -0 -0 -1
    outer loop
      vertex 6.45794 16.3691 0
      vertex 0 30 0
      vertex 6.75261 15.9635 0
    endloop
  endfacet
  facet normal 0 -0 -1
    outer loop
      vertex 4.62524 16.9646 0
      vertex 0 30 0
      vertex 5.12558 16.9961 0
    endloop
  endfacet
  facet normal -0 0 -1
    outer loop
      vertex 6.07165 13.3113 0
      vertex 6.45794 13.6309 0
      vertex 24 0 0
    endloop
  endfacet
  facet normal -0 0 -1
    outer loop
      vertex 6.45794 13.6309 0
      vertex 6.75261 14.0365 0
      vertex 24 0 0
    endloop
  endfacet
  facet normal -0 -0 -1
    outer loop
      vertex 5.12558 16.9961 0
      vertex 0 30 0
      vertex 5.61803 16.9021 0
    endloop
  endfacet
  facet normal -0 0 -1
    outer loop
      vertex 6.75261 14.0365 0
      vertex 6.93717 14.5026 0
      vertex 24 0 0
    endloop
  endfacet
  facet normal -0 -0 -1
    outer loop
      vertex 5.61803 16.9021 0
      vertex 0 30 0
      vertex 6.07165 16.6887 0
    endloop
  endfacet
  facet normal -0 0 -1
    outer loop
      vertex 6.93717 14.5026 0
      vertex 7 15 0
      vertex 24 0 0
    endloop
  endfacet
  facet normal -0 -0 -1
    outer loop
      vertex 6.07165 16.6887 0
      vertex 0 30 0
      vertex 6.45794 16.3691 0
    endloop
  endfacet
  facet normal -0 -0 -1
    outer loop
      vertex 7 15 0
      vertex 6.93717 15.4974 0
      vertex 24 0 0
    endloop
  endfacet
  facet normal -0 -0 -1
    outer loop
      vertex 6.93717 15.4974 0
      vertex 6.75261 15.9635 0
      vertex 24 0 0
    endloop
  endfacet
  facet normal 0 -0 -1
    outer loop
      vertex 4.14844 16.8097 0
      vertex 0 30 0
      vertex 4.62524 16.9646 0
    endloop
  endfacet
  facet normal 0 -0 -1
    outer loop
      vertex 3.72515 16.541 0
      vertex 0 30 0
      vertex 4.14844 16.8097 0
    endloop
  endfacet
  facet normal 0 -0 -1
    outer loop
      vertex 3.38197 16.1756 0
      vertex 0 30 0
      vertex 3.72515 16.541 0
    endloop
  endfacet
  facet normal 0 -0 -1
    outer loop
      vertex 3.14045 15.7362 0
      vertex 0 30 0
      vertex 3.38197 16.1756 0
    endloop
  endfacet
  facet normal 0 -0 -1
    outer loop
      vertex 3.01577 15.2507 0
      vertex 0 30 0
      vertex 3.14045 15.7362 0
    endloop
  endfacet
  facet normal 0 0 -1
    outer loop
      vertex 36 0 0
      vertex 53.0158 15.2507 0
      vertex 53.0158 14.7493 0
    endloop
  endfacet
  facet normal 0 0 -1
    outer loop
      vertex 36 0 0
      vertex 53.0158 14.7493 0
      vertex 53.1404 14.2638 0
    endloop
  endfacet
  facet normal -0 0 -1
    outer loop
      vertex 36 0 0
      vertex 53.1404 14.2638 0
      vertex 60 0 0
    endloop
  endfacet
  facet normal 0 0 -1
    outer loop
      vertex 53.1404 14.2638 0
      vertex 53.382 13.8244 0
      vertex 60 0 0
    endloop
  endfacet
  facet normal 0 0 -1
    outer loop
      vertex 54.1484 13.1903 0
      vertex 60 0 0
      vertex 53.7252 13.459 0
    endloop
  endfacet
  facet normal 0 0 -1
    outer loop
      vertex 53.382 16.1756 0
      vertex 60 30 0
      vertex 53.7252 16.541 0
    endloop
  endfacet
  facet normal -0 0 -1
    outer loop
      vertex 56.9372 15.4974 0
      vertex 60 30 0
      vertex 57 15 0
    endloop
  endfacet
  facet normal -0 0 -1
    outer loop
      vertex 55.1256 16.9961 0
      vertex 60 30 0
      vertex 55.618 16.9021 0
    endloop
  endfacet
  facet normal 0 0 -1
    outer loop
      vertex 54.1484 13.1903 0
      vertex 54.6252 13.0354 0
      vertex 60 0 0
    endloop
  endfacet
  facet normal -0 0 -1
    outer loop
      vertex 55.618 16.9021 0
      vertex 60 30 0
      vertex 56.0717 16.6887 0
    endloop
  endfacet
  facet normal 0 0 -1
    outer loop
      vertex 54.6252 13.0354 0
      vertex 55.1256 13.0039 0
      vertex 60 0 0
    endloop
  endfacet
  facet normal -0 0 -1
    outer loop
      vertex 56.0717 16.6887 0
      vertex 60 30 0
      vertex 56.4579 16.3691 0
    endloop
  endfacet
  facet normal -0 0 -1
    outer loop
      vertex 55.1256 13.0039 0
      vertex 55.618 13.0979 0
      vertex 60 0 0
    endloop
  endfacet
  facet normal -0 0 -1
    outer loop
      vertex 55.618 13.0979 0
      vertex 56.0717 13.3113 0
      vertex 60 0 0
    endloop
  endfacet
  facet normal -0 0 -1
    outer loop
      vertex 56.4579 16.3691 0
      vertex 60 30 0
      vertex 56.7526 15.9635 0
    endloop
  endfacet
  facet normal -0 0 -1
    outer loop
      vertex 56.0717 13.3113 0
      vertex 56.4579 13.6309 0
      vertex 60 0 0
    endloop
  endfacet
  facet normal -0 0 -1
    outer loop
      vertex 56.7526 15.9635 0
      vertex 60 30 0
      vertex 56.9372 15.4974 0
    endloop
  endfacet
  facet normal -0 0 -1
    outer loop
      vertex 56.4579 13.6309 0
      vertex 56.7526 14.0365 0
      vertex 60 0 0
    endloop
  endfacet
  facet normal -0 0 -1
    outer loop
      vertex 57 15 0
      vertex 60 30 0
      vertex 56.9372 14.5026 0
    endloop
  endfacet
  facet normal -0 0 -1
    outer loop
      vertex 56.7526 14.0365 0
      vertex 56.9372 14.5026 0
      vertex 60 0 0
    endloop
  endfacet
  facet normal 0 0 -1
    outer loop
      vertex 54.6252 16.9646 0
      vertex 60 30 0
      vertex 55.1256 16.9961 0
    endloop
  endfacet
  facet normal 0 0 -1
    outer loop
      vertex 54.1484 16.8097 0
      vertex 60 30 0
      vertex 54.6252 16.9646 0
    endloop
  endfacet
  facet normal 0 0 -1
    outer loop
      vertex 53.7252 16.541 0
      vertex 60 30 0
      vertex 54.1484 16.8097 0
    endloop
  endfacet
  facet normal 0 0 -1
    outer loop
      vertex 36 0 0
      vertex 60 30 0
      vertex 53.382 16.1756 0
    endloop
  endfacet
  facet normal 0 0 -1
    outer loop
      vertex 36 0 0
      vertex 53.382 16.1756 0
      vertex 53.1404 15.7362 0
    endloop
  endfacet
  facet normal 0 0 -1
    outer loop
      vertex 36 0 0
      vertex 53.1404 15.7362 0
      vertex 53.0158 15.2507 0
    endloop
  endfacet
  facet normal -0 -0 -1
    outer loop
      vertex 30.8054 15.9457 0
      vertex 0 30 0
      vertex 31.8541 15.7063 0
    endloop
  endfacet
  facet normal 0 1 0
    outer loop
      vertex 0 30 0
      vertex 0 30 6
      vertex 60 30 0
    endloop
  endfacet
  facet normal 0 1 0
    outer loop
      vertex 60 30 0
      vertex 0 30 6
      vertex 60 30 6
    endloop
  endfacet
  facet normal 0 -0 1
    outer loop
      vertex 5.12558 13.0039 6
      vertex 0 0 6
      vertex 24 0 6
    endloop
  endfacet
  facet normal -0 0 1
    outer loop
      vertex 24.0242 10 6
      vertex 0 30 6
      vertex 24 10 6
    endloop
  endfacet
  facet normal -0 0 1
    outer loop
      vertex 24 10 6
      vertex 0 30 6
      vertex 24 0 6
    endloop
  endfacet
  facet normal -0 0 1
    outer loop
      vertex 24.0242 10.5378 6
      vertex 0 30 6
      vertex 24.0242 10 6
    endloop
  endfacet
  facet normal -0 0 1
    outer loop
      vertex 24.2162 11.5962 6
      vertex 0 30 6
      vertex 24.0242 10.5378 6
    endloop
  endfacet
  facet normal -0 0 1
    outer loop
      vertex 24.5942 12.6033 6
      vertex 0 30 6
      vertex 24.2162 11.5962 6
    endloop
  endfacet
  facet normal -0 0 1
    outer loop
      vertex 25.1459 13.5267 6
      vertex 0 30 6
      vertex 24.5942 12.6033 6
    endloop
  endfacet
  facet normal -0 0 1
    outer loop
      vertex 25.8536 14.3368 6
      vertex 0 30 6
      vertex 25.1459 13.5267 6
    endloop
  endfacet
  facet normal -0 0 1
    outer loop
      vertex 26.6946 15.0074 6
      vertex 0 30 6
      vertex 25.8536 14.3368 6
    endloop
  endfacet
  facet normal -0 0 1
    outer loop
      vertex 27.6418 15.5172 6
      vertex 0 30 6
      vertex 26.6946 15.0074 6
    endloop
  endfacet
  facet normal -0 0 1
    outer loop
      vertex 28.6649 15.8496 6
      vertex 0 30 6
      vertex 27.6418 15.5172 6
    endloop
  endfacet
  facet normal -0 0 1
    outer loop
      vertex 29.7308 15.994 6
      vertex 0 30 6
      vertex 28.6649 15.8496 6
    endloop
  endfacet
  facet normal 0 0 1
    outer loop
      vertex 30.8054 15.9457 6
      vertex 0 30 6
      vertex 29.7308 15.994 6
    endloop
  endfacet
  facet normal 0 0 1
    outer loop
      vertex 31.8541 15.7063 6
      vertex 0 30 6
      vertex 30.8054 15.9457 6
    endloop
  endfacet
  facet normal 0 0 1
    outer loop
      vertex 32.8432 15.2836 6
      vertex 0 30 6
      vertex 31.8541 15.7063 6
    endloop
  endfacet
  facet normal 0 0 1
    outer loop
      vertex 60 30 6
      vertex 0 30 6
      vertex 32.8432 15.2836 6
    endloop
  endfacet
  facet normal 0 0 1
    outer loop
      vertex 60 0 6
      vertex 32.8432 15.2836 6
      vertex 33.7409 14.691 6
    endloop
  endfacet
  facet normal 0 0 1
    outer loop
      vertex 60 0 6
      vertex 33.7409 14.691 6
      vertex 34.5184 13.9476 6
    endloop
  endfacet
  facet normal 0 0 1
    outer loop
      vertex 60 0 6
      vertex 34.5184 13.9476 6
      vertex 35.1507 13.0774 6
    endloop
  endfacet
  facet normal 0 0 1
    outer loop
      vertex 60 0 6
      vertex 35.1507 13.0774 6
      vertex 35.6174 12.1082 6
    endloop
  endfacet
  facet normal 0 0 1
    outer loop
      vertex 60 0 6
      vertex 35.6174 12.1082 6
      vertex 35.9036 11.0713 6
    endloop
  endfacet
  facet normal 0 0 1
    outer loop
      vertex 60 0 6
      vertex 35.9036 11.0713 6
      vertex 36 10 6
    endloop
  endfacet
  facet normal -0 0 1
    outer loop
      vertex 60 0 6
      vertex 36 10 6
      vertex 36 0 6
    endloop
  endfacet
  facet normal -0 -0 1
    outer loop
      vertex 53.382 13.8244 6
      vertex 32.8432 15.2836 6
      vertex 60 0 6
    endloop
  endfacet
  facet normal 0 0 1
    outer loop
      vertex 53.382 16.1756 6
      vertex 53.7252 16.541 6
      vertex 60 30 6
    endloop
  endfacet
  facet normal 0 -0 1
    outer loop
      vertex 0 30 6
      vertex 0 0 6
      vertex 3.01577 14.7493 6
    endloop
  endfacet
  facet normal 0 -0 1
    outer loop
      vertex 5.61803 13.0979 6
      vertex 5.12558 13.0039 6
      vertex 24 0 6
    endloop
  endfacet
  facet normal 0 0 1
    outer loop
      vertex 0 30 6
      vertex 3.01577 14.7493 6
      vertex 3.01577 15.2507 6
    endloop
  endfacet
  facet normal 0 -0 1
    outer loop
      vertex 6.07165 13.3113 6
      vertex 5.61803 13.0979 6
      vertex 24 0 6
    endloop
  endfacet
  facet normal 0 0 1
    outer loop
      vertex 0 30 6
      vertex 3.01577 15.2507 6
      vertex 3.14045 15.7362 6
    endloop
  endfacet
  facet normal 0 -0 1
    outer loop
      vertex 6.45794 13.6309 6
      vertex 6.07165 13.3113 6
      vertex 24 0 6
    endloop
  endfacet
  facet normal 0 0 1
    outer loop
      vertex 0 30 6
      vertex 3.14045 15.7362 6
      vertex 3.38197 16.1756 6
    endloop
  endfacet
  facet normal 0 -0 1
    outer loop
      vertex 6.75261 14.0365 6
      vertex 6.45794 13.6309 6
      vertex 24 0 6
    endloop
  endfacet
  facet normal 0 0 1
    outer loop
      vertex 0 30 6
      vertex 3.38197 16.1756 6
      vertex 3.72515 16.541 6
    endloop
  endfacet
  facet normal 0 -0 1
    outer loop
      vertex 56.7526 14.0365 6
      vertex 56.4579 13.6309 6
      vertex 60 0 6
    endloop
  endfacet
  facet normal 0 0 1
    outer loop
      vertex 0 30 6
      vertex 3.72515 16.541 6
      vertex 4.14844 16.8097 6
    endloop
  endfacet
  facet normal 0 0 1
    outer loop
      vertex 0 30 6
      vertex 4.14844 16.8097 6
      vertex 4.62524 16.9646 6
    endloop
  endfacet
  facet normal 0 -0 1
    outer loop
      vertex 7 15 6
      vertex 6.93717 14.5026 6
      vertex 24 0 6
    endloop
  endfacet
  facet normal 0 0 1
    outer loop
      vertex 0 30 6
      vertex 4.62524 16.9646 6
      vertex 5.12558 16.9961 6
    endloop
  endfacet
  facet normal 0 0 1
    outer loop
      vertex 6.93717 15.4974 6
      vertex 7 15 6
      vertex 24 0 6
    endloop
  endfacet
  facet normal 0 0 1
    outer loop
      vertex 0 30 6
      vertex 5.12558 16.9961 6
      vertex 5.61803 16.9021 6
    endloop
  endfacet
  facet normal 0 0 1
    outer loop
      vertex 6.75261 15.9635 6
      vertex 6.93717 15.4974 6
      vertex 24 0 6
    endloop
  endfacet
  facet normal 0 0 1
    outer loop
      vertex 0 30 6
      vertex 5.61803 16.9021 6
      vertex 6.07165 16.6887 6
    endloop
  endfacet
  facet normal 0 0 1
    outer loop
      vertex 0 30 6
      vertex 6.45794 16.3691 6
      vertex 24 0 6
    endloop
  endfacet
  facet normal 0 0 1
    outer loop
      vertex 0 30 6
      vertex 6.07165 16.6887 6
      vertex 6.45794 16.3691 6
    endloop
  endfacet
  facet normal 0 -0 1
    outer loop
      vertex 4.62524 13.0354 6
      vertex 0 0 6
      vertex 5.12558 13.0039 6
    endloop
  endfacet
  facet normal 0 -0 1
    outer loop
      vertex 4.14844 13.1903 6
      vertex 0 0 6
      vertex 4.62524 13.0354 6
    endloop
  endfacet
  facet normal 0 -0 1
    outer loop
      vertex 3.72515 13.459 6
      vertex 0 0 6
      vertex 4.14844 13.1903 6
    endloop
  endfacet
  facet normal 0 -0 1
    outer loop
      vertex 3.38197 13.8244 6
      vertex 0 0 6
      vertex 3.72515 13.459 6
    endloop
  endfacet
  facet normal 0 -0 1
    outer loop
      vertex 3.14045 14.2638 6
      vertex 0 0 6
      vertex 3.38197 13.8244 6
    endloop
  endfacet
  facet normal 0 -0 1
    outer loop
      vertex 3.01577 14.7493 6
      vertex 0 0 6
      vertex 3.14045 14.2638 6
    endloop
  endfacet
  facet normal -0 0 1
    outer loop
      vertex 53.0158 15.2507 6
      vertex 32.8432 15.2836 6
      vertex 53.0158 14.7493 6
    endloop
  endfacet
  facet normal 0 0 1
    outer loop
      vertex 53.1404 15.7362 6
      vertex 32.8432 15.2836 6
      vertex 53.0158 15.2507 6
    endloop
  endfacet
  facet normal 0 0 1
    outer loop
      vertex 60 30 6
      vertex 32.8432 15.2836 6
      vertex 53.1404 15.7362 6
    endloop
  endfacet
  facet normal 0 0 1
    outer loop
      vertex 53.7252 16.541 6
      vertex 54.1484 16.8097 6
      vertex 60 30 6
    endloop
  endfacet
  facet normal 0 0 1
    outer loop
      vertex 60 30 6
      vertex 53.1404 15.7362 6
      vertex 53.382 16.1756 6
    endloop
  endfacet
  facet normal 0 -0 1
    outer loop
      vertex 57 15 6
      vertex 56.9372 14.5026 6
      vertex 60 0 6
    endloop
  endfacet
  facet normal -0 -0 1
    outer loop
      vertex 53.7252 13.459 6
      vertex 53.382 13.8244 6
      vertex 60 0 6
    endloop
  endfacet
  facet normal 0 -0 1
    outer loop
      vertex 55.618 13.0979 6
      vertex 55.1256 13.0039 6
      vertex 60 0 6
    endloop
  endfacet
  facet normal 0 0 1
    outer loop
      vertex 60 30 6
      vertex 54.1484 16.8097 6
      vertex 54.6252 16.9646 6
    endloop
  endfacet
  facet normal 0 -0 1
    outer loop
      vertex 56.0717 13.3113 6
      vertex 55.618 13.0979 6
      vertex 60 0 6
    endloop
  endfacet
  facet normal 0 0 1
    outer loop
      vertex 60 30 6
      vertex 54.6252 16.9646 6
      vertex 55.1256 16.9961 6
    endloop
  endfacet
  facet normal 0 -0 1
    outer loop
      vertex 56.4579 13.6309 6
      vertex 56.0717 13.3113 6
      vertex 60 0 6
    endloop
  endfacet
  facet normal 0 0 1
    outer loop
      vertex 60 30 6
      vertex 55.1256 16.9961 6
      vertex 55.618 16.9021 6
    endloop
  endfacet
  facet normal 0 0 1
    outer loop
      vertex 60 30 6
      vertex 55.618 16.9021 6
      vertex 56.0717 16.6887 6
    endloop
  endfacet
  facet normal 0 0 1
    outer loop
      vertex 60 30 6
      vertex 56.0717 16.6887 6
      vertex 56.4579 16.3691 6
    endloop
  endfacet
  facet normal 0 -0 1
    outer loop
      vertex 56.9372 14.5026 6
      vertex 56.7526 14.0365 6
      vertex 60 0 6
    endloop
  endfacet
  facet normal 0 0 1
    outer loop
      vertex 60 30 6
      vertex 56.4579 16.3691 6
      vertex 56.7526 15.9635 6
    endloop
  endfacet
  facet normal 0 0 1
    outer loop
      vertex 60 30 6
      vertex 56.9372 15.4974 6
      vertex 60 0 6
    endloop
  endfacet
  facet normal 0 0 1
    outer loop
      vertex 60 30 6
      vertex 56.7526 15.9635 6
      vertex 56.9372 15.4974 6
    endloop
  endfacet
  facet normal 0 0 1
    outer loop
      vertex 56.9372 15.4974 6
      vertex 57 15 6
      vertex 60 0 6
    endloop
  endfacet
  facet normal -0 -0 1
    outer loop
      vertex 55.1256 13.0039 6
      vertex 54.6252 13.0354 6
      vertex 60 0 6
    endloop
  endfacet
  facet normal -0 -0 1
    outer loop
      vertex 54.6252 13.0354 6
      vertex 54.1484 13.1903 6
      vertex 60 0 6
    endloop
  endfacet
  facet normal -0 -0 1
    outer loop
      vertex 54.1484 13.1903 6
      vertex 53.7252 13.459 6
      vertex 60 0 6
    endloop
  endfacet
  facet normal -0 -0 1
    outer loop
      vertex 53.1404 14.2638 6
      vertex 32.8432 15.2836 6
      vertex 53.382 13.8244 6
    endloop
  endfacet
  facet normal -0 -0 1
    outer loop
      vertex 53.0158 14.7493 6
      vertex 32.8432 15.2836 6
      vertex 53.1404 14.2638 6
    endloop
  endfacet
  facet normal 0 0 1
    outer loop
      vertex 6.45794 16.3691 6
      vertex 6.75261 15.9635 6
      vertex 24 0 6
    endloop
  endfacet
  facet normal 0 -0 1
    outer loop
      vertex 6.93717 14.5026 6
      vertex 6.75261 14.0365 6
      vertex 24 0 6
    endloop
  endfacet
  facet normal 1 0 0
    outer loop
      vertex 24 10 0
      vertex 24 10 6
      vertex 24 0 6
    endloop
  endfacet
  facet normal 1 0 0
    outer loop
      vertex 24 0 0
      vertex 24 10 0
      vertex 24 0 6
    endloop
  endfacet
  facet normal 0 -1 0
    outer loop
      vertex 24.0242 10 0
      vertex 24.0242 10 6
      vertex 24 10 6
    endloop
  endfacet
  facet normal -0 -1 -0
    outer loop
      vertex 24 10 0
      vertex 24.0242 10 0
      vertex 24 10 6
    endloop
  endfacet
  facet normal 1 0 0
    outer loop
      vertex 24.0242 10.5378 0
      vertex 24.0242 10.5378 6
      vertex 24.0242 10 6
    endloop
  endfacet
  facet normal 1 0 0
    outer loop
      vertex 24.0242 10 0
      vertex 24.0242 10.5378 0
      vertex 24.0242 10 6
    endloop
  endfacet
  facet normal 0.98393 -0.178557 0
    outer loop
      vertex 24.2162 11.5962 0
      vertex 24.2162 11.5962 6
      vertex 24.0242 10.5378 6
    endloop
  endfacet
  facet normal 0.98393 -0.178557 0
    outer loop
      vertex 24.0242 10.5378 0
      vertex 24.2162 11.5962 0
      vertex 24.0242 10.5378 6
    endloop
  endfacet
  facet normal 0.936235 -0.351375 0
    outer loop
      vertex 24.5942 12.6033 0
      vertex 24.5942 12.6033 6
      vertex 24.2162 11.5962 6
    endloop
  endfacet
  facet normal 0.936235 -0.351375 0
    outer loop
      vertex 24.2162 11.5962 0
      vertex 24.5942 12.6033 0
      vertex 24.2162 11.5962 6
    endloop
  endfacet
  facet normal 0.858449 -0.512899 0
    outer loop
      vertex 25.1459 13.5267 0
      vertex 25.1459 13.5267 6
      vertex 24.5942 12.6033 6
    endloop
  endfacet
  facet normal 0.858449 -0.512899 0
    outer loop
      vertex 24.5942 12.6033 0
      vertex 25.1459 13.5267 0
      vertex 24.5942 12.6033 6
    endloop
  endfacet
  facet normal 0.753071 -0.657939 0
    outer loop
      vertex 25.8536 14.3368 0
      vertex 25.8536 14.3368 6
      vertex 25.1459 13.5267 6
    endloop
  endfacet
  facet normal 0.753071 -0.657939 0
    outer loop
      vertex 25.1459 13.5267 0
      vertex 25.8536 14.3368 0
      vertex 25.1459 13.5267 6
    endloop
  endfacet
  facet normal 0.62349 -0.781831 0
    outer loop
      vertex 26.6946 15.0074 0
      vertex 26.6946 15.0074 6
      vertex 25.8536 14.3368 6
    endloop
  endfacet
  facet normal 0.62349 -0.781831 0
    outer loop
      vertex 25.8536 14.3368 0
      vertex 26.6946 15.0074 0
      vertex 25.8536 14.3368 6
    endloop
  endfacet
  facet normal 0.473868 -0.880596 0
    outer loop
      vertex 27.6418 15.5172 0
      vertex 27.6418 15.5172 6
      vertex 26.6946 15.0074 6
    endloop
  endfacet
  facet normal 0.473868 -0.880596 0
    outer loop
      vertex 26.6946 15.0074 0
      vertex 27.6418 15.5172 0
      vertex 26.6946 15.0074 6
    endloop
  endfacet
  facet normal 0.309016 -0.951057 0
    outer loop
      vertex 28.6649 15.8496 0
      vertex 28.6649 15.8496 6
      vertex 27.6418 15.5172 6
    endloop
  endfacet
  facet normal 0.309016 -0.951057 0
    outer loop
      vertex 27.6418 15.5172 0
      vertex 28.6649 15.8496 0
      vertex 27.6418 15.5172 6
    endloop
  endfacet
  facet normal 0.134233 -0.99095 0
    outer loop
      vertex 29.7308 15.994 0
      vertex 29.7308 15.994 6
      vertex 28.6649 15.8496 6
    endloop
  endfacet
  facet normal 0.134233 -0.99095 0
    outer loop
      vertex 28.6649 15.8496 0
      vertex 29.7308 15.994 0
      vertex 28.6649 15.8496 6
    endloop
  endfacet
  facet normal -0.044864 -0.998993 -0
    outer loop
      vertex 30.8054 15.9457 0
      vertex 30.8054 15.9457 6
      vertex 29.7308 15.994 6
    endloop
  endfacet
  facet normal -0.044864 -0.998993 -0
    outer loop
      vertex 29.7308 15.994 0
      vertex 30.8054 15.9457 0
      vertex 29.7308 15.994 6
    endloop
  endfacet
  facet normal -0.222521 -0.974928 -0
    outer loop
      vertex 31.8541 15.7063 0
      vertex 31.8541 15.7063 6
      vertex 30.8054 15.9457 6
    endloop
  endfacet
  facet normal -0.222521 -0.974928 -0
    outer loop
      vertex 30.8054 15.9457 0
      vertex 31.8541 15.7063 0
      vertex 30.8054 15.9457 6
    endloop
  endfacet
  facet normal -0.393025 -0.919528 -0
    outer loop
      vertex 32.8432 15.2836 0
      vertex 32.8432 15.2836 6
      vertex 31.8541 15.7063 6
    endloop
  endfacet
  facet normal -0.393025 -0.919528 -0
    outer loop
      vertex 31.8541 15.7063 0
      vertex 32.8432 15.2836 0
      vertex 31.8541 15.7063 6
    endloop
  endfacet
  facet normal -0.550897 -0.834573 -0
    outer loop
      vertex 33.7409 14.691 0
      vertex 33.7409 14.691 6
      vertex 32.8432 15.2836 6
    endloop
  endfacet
  facet normal -0.550897 -0.834573 -0
    outer loop
      vertex 32.8432 15.2836 0
      vertex 33.7409 14.691 0
      vertex 32.8432 15.2836 6
    endloop
  endfacet
  facet normal -0.691063 -0.722795 -0
    outer loop
      vertex 34.5184 13.9476 0
      vertex 34.5184 13.9476 6
      vertex 33.7409 14.691 6
    endloop
  endfacet
  facet normal -0.691063 -0.722795 -0
    outer loop
      vertex 33.7409 14.691 0
      vertex 34.5184 13.9476 0
      vertex 33.7409 14.691 6
    endloop
  endfacet
  facet normal -0.809017 -0.587786 0
    outer loop
      vertex 35.1507 13.0774 6
      vertex 34.5184 13.9476 6
      vertex 35.1507 13.0774 0
    endloop
  endfacet
  facet normal -0.809017 -0.587786 0
    outer loop
      vertex 35.1507 13.0774 0
      vertex 34.5184 13.9476 6
      vertex 34.5184 13.9476 0
    endloop
  endfacet
  facet normal -0.900969 -0.433883 0
    outer loop
      vertex 35.6174 12.1082 6
      vertex 35.1507 13.0774 6
      vertex 35.6174 12.1082 0
    endloop
  endfacet
  facet normal -0.900969 -0.433883 0
    outer loop
      vertex 35.6174 12.1082 0
      vertex 35.1507 13.0774 6
      vertex 35.1507 13.0774 0
    endloop
  endfacet
  facet normal -0.963963 -0.266037 0
    outer loop
      vertex 35.9036 11.0713 6
      vertex 35.6174 12.1082 6
      vertex 35.9036 11.0713 0
    endloop
  endfacet
  facet normal -0.963963 -0.266037 0
    outer loop
      vertex 35.9036 11.0713 0
      vertex 35.6174 12.1082 6
      vertex 35.6174 12.1082 0
    endloop
  endfacet
  facet normal -0.995974 -0.0896389 0
    outer loop
      vertex 36 10 6
      vertex 35.9036 11.0713 6
      vertex 36 10 0
    endloop
  endfacet
  facet normal -0.995974 -0.0896389 0
    outer loop
      vertex 36 10 0
      vertex 35.9036 11.0713 6
      vertex 35.9036 11.0713 0
    endloop
  endfacet
  facet normal -1 0 0
    outer loop
      vertex 36 10 6
      vertex 36 10 0
      vertex 36 0 6
    endloop
  endfacet
  facet normal -1 0 0
    outer loop
      vertex 36 0 6
      vertex 36 10 0
      vertex 36 0 0
    endloop
  endfacet
  facet normal 0 -1 0
    outer loop
      vertex 36 0 6
      vertex 36 0 0
      vertex 60 0 0
    endloop
  endfacet
  facet normal 0 -1 0
    outer loop
      vertex 60 0 6
      vertex 36 0 6
      vertex 60 0 0
    endloop
  endfacet
  facet normal 1 0 -0
    outer loop
      vertex 60 0 6
      vertex 60 0 0
      vertex 60 30 0
    endloop
  endfacet
  facet normal 1 0 0
    outer loop
      vertex 60 30 6
      vertex 60 0 6
      vertex 60 30 0
    endloop
  endfacet
  facet normal 0.968583 -0.248689 0
    outer loop
      vertex 3.14045 15.7362 0
      vertex 3.14045 15.7362 6
      vertex 3.01577 15.2507 6
    endloop
  endfacet
  facet normal 0.968583 -0.248689 0
    outer loop
      vertex 3.01577 15.2507 0
      vertex 3.14045 15.7362 0
      vertex 3.01577 15.2507 6
    endloop
  endfacet
  facet normal 1 0 0
    outer loop
      vertex 3.01577 15.2507 0
      vertex 3.01577 15.2507 6
      vertex 3.01577 14.7493 6
    endloop
  endfacet
  facet normal 1 0 0
    outer loop
      vertex 3.01577 14.7493 0
      vertex 3.01577 15.2507 0
      vertex 3.01577 14.7493 6
    endloop
  endfacet
  facet normal 0.876307 -0.481753 0
    outer loop
      vertex 3.38197 16.1756 0
      vertex 3.38197 16.1756 6
      vertex 3.14045 15.7362 6
    endloop
  endfacet
  facet normal 0.876307 -0.481753 0
    outer loop
      vertex 3.14045 15.7362 0
      vertex 3.38197 16.1756 0
      vertex 3.14045 15.7362 6
    endloop
  endfacet
  facet normal 0.728968 -0.684548 0
    outer loop
      vertex 3.72515 16.541 0
      vertex 3.72515 16.541 6
      vertex 3.38197 16.1756 6
    endloop
  endfacet
  facet normal 0.728968 -0.684548 0
    outer loop
      vertex 3.38197 16.1756 0
      vertex 3.72515 16.541 0
      vertex 3.38197 16.1756 6
    endloop
  endfacet
  facet normal 0.535828 -0.844327 0
    outer loop
      vertex 4.14844 16.8097 0
      vertex 4.14844 16.8097 6
      vertex 3.72515 16.541 6
    endloop
  endfacet
  facet normal 0.535828 -0.844327 0
    outer loop
      vertex 3.72515 16.541 0
      vertex 4.14844 16.8097 0
      vertex 3.72515 16.541 6
    endloop
  endfacet
  facet normal 0.309018 -0.951056 0
    outer loop
      vertex 4.62524 16.9646 0
      vertex 4.62524 16.9646 6
      vertex 4.14844 16.8097 6
    endloop
  endfacet
  facet normal 0.309018 -0.951056 0
    outer loop
      vertex 4.14844 16.8097 0
      vertex 4.62524 16.9646 0
      vertex 4.14844 16.8097 6
    endloop
  endfacet
  facet normal 0.0627886 -0.998027 0
    outer loop
      vertex 5.12558 16.9961 0
      vertex 5.12558 16.9961 6
      vertex 4.62524 16.9646 6
    endloop
  endfacet
  facet normal 0.0627886 -0.998027 0
    outer loop
      vertex 4.62524 16.9646 0
      vertex 5.12558 16.9961 0
      vertex 4.62524 16.9646 6
    endloop
  endfacet
  facet normal -0.18738 -0.982287 -0
    outer loop
      vertex 5.61803 16.9021 0
      vertex 5.61803 16.9021 6
      vertex 5.12558 16.9961 6
    endloop
  endfacet
  facet normal -0.18738 -0.982287 -0
    outer loop
      vertex 5.12558 16.9961 0
      vertex 5.61803 16.9021 0
      vertex 5.12558 16.9961 6
    endloop
  endfacet
  facet normal -0.425779 -0.904827 -0
    outer loop
      vertex 6.07165 16.6887 0
      vertex 6.07165 16.6887 6
      vertex 5.61803 16.9021 6
    endloop
  endfacet
  facet normal -0.425779 -0.904827 -0
    outer loop
      vertex 5.61803 16.9021 0
      vertex 6.07165 16.6887 0
      vertex 5.61803 16.9021 6
    endloop
  endfacet
  facet normal -0.637425 -0.770512 -0
    outer loop
      vertex 6.45794 16.3691 0
      vertex 6.45794 16.3691 6
      vertex 6.07165 16.6887 6
    endloop
  endfacet
  facet normal -0.637425 -0.770512 -0
    outer loop
      vertex 6.07165 16.6887 0
      vertex 6.45794 16.3691 0
      vertex 6.07165 16.6887 6
    endloop
  endfacet
  facet normal -0.809017 -0.587785 0
    outer loop
      vertex 6.75261 15.9635 6
      vertex 6.45794 16.3691 6
      vertex 6.75261 15.9635 0
    endloop
  endfacet
  facet normal -0.809017 -0.587785 0
    outer loop
      vertex 6.75261 15.9635 0
      vertex 6.45794 16.3691 6
      vertex 6.45794 16.3691 0
    endloop
  endfacet
  facet normal -0.929776 -0.368125 0
    outer loop
      vertex 6.93717 15.4974 6
      vertex 6.75261 15.9635 6
      vertex 6.93717 15.4974 0
    endloop
  endfacet
  facet normal -0.929776 -0.368125 0
    outer loop
      vertex 6.93717 15.4974 0
      vertex 6.75261 15.9635 6
      vertex 6.75261 15.9635 0
    endloop
  endfacet
  facet normal -0.992115 -0.125334 0
    outer loop
      vertex 7 15 6
      vertex 6.93717 15.4974 6
      vertex 7 15 0
    endloop
  endfacet
  facet normal -0.992115 -0.125334 0
    outer loop
      vertex 7 15 0
      vertex 6.93717 15.4974 6
      vertex 6.93717 15.4974 0
    endloop
  endfacet
  facet normal -0.992115 0.125334 0
    outer loop
      vertex 7 15 6
      vertex 7 15 0
      vertex 6.93717 14.5026 6
    endloop
  endfacet
  facet normal -0.992115 0.125334 0
    outer loop
      vertex 6.93717 14.5026 6
      vertex 7 15 0
      vertex 6.93717 14.5026 0
    endloop
  endfacet
  facet normal -0.929776 0.368125 0
    outer loop
      vertex 6.93717 14.5026 6
      vertex 6.93717 14.5026 0
      vertex 6.75261 14.0365 6
    endloop
  endfacet
  facet normal -0.929776 0.368125 0
    outer loop
      vertex 6.75261 14.0365 6
      vertex 6.93717 14.5026 0
      vertex 6.75261 14.0365 0
    endloop
  endfacet
  facet normal -0.809017 0.587785 0
    outer loop
      vertex 6.75261 14.0365 6
      vertex 6.75261 14.0365 0
      vertex 6.45794 13.6309 6
    endloop
  endfacet
  facet normal -0.809017 0.587785 0
    outer loop
      vertex 6.45794 13.6309 6
      vertex 6.75261 14.0365 0
      vertex 6.45794 13.6309 0
    endloop
  endfacet
  facet normal -0.637425 0.770512 0
    outer loop
      vertex 6.45794 13.6309 6
      vertex 6.45794 13.6309 0
      vertex 6.07165 13.3113 6
    endloop
  endfacet
  facet normal -0.637425 0.770512 0
    outer loop
      vertex 6.07165 13.3113 6
      vertex 6.45794 13.6309 0
      vertex 6.07165 13.3113 0
    endloop
  endfacet
  facet normal -0.425779 0.904827 0
    outer loop
      vertex 6.07165 13.3113 6
      vertex 6.07165 13.3113 0
      vertex 5.61803 13.0979 6
    endloop
  endfacet
  facet normal -0.425779 0.904827 0
    outer loop
      vertex 5.61803 13.0979 6
      vertex 6.07165 13.3113 0
      vertex 5.61803 13.0979 0
    endloop
  endfacet
  facet normal -0.18738 0.982287 0
    outer loop
      vertex 5.61803 13.0979 6
      vertex 5.61803 13.0979 0
      vertex 5.12558 13.0039 6
    endloop
  endfacet
  facet normal -0.18738 0.982287 0
    outer loop
      vertex 5.12558 13.0039 6
      vertex 5.61803 13.0979 0
      vertex 5.12558 13.0039 0
    endloop
  endfacet
  facet normal 0.0627886 0.998027 -0
    outer loop
      vertex 5.12558 13.0039 6
      vertex 5.12558 13.0039 0
      vertex 4.62524 13.0354 6
    endloop
  endfacet
  facet normal 0.0627886 0.998027 -0
    outer loop
      vertex 4.62524 13.0354 6
      vertex 5.12558 13.0039 0
      vertex 4.62524 13.0354 0
    endloop
  endfacet
  facet normal 0.309018 0.951056 -0
    outer loop
      vertex 4.62524 13.0354 6
      vertex 4.62524 13.0354 0
      vertex 4.14844 13.1903 6
    endloop
  endfacet
  facet normal 0.309018 0.951056 -0
    outer loop
      vertex 4.14844 13.1903 6
      vertex 4.62524 13.0354 0
      vertex 4.14844 13.1903 0
    endloop
  endfacet
  facet normal 0.535828 0.844327 -0
    outer loop
      vertex 4.14844 13.1903 6
      vertex 4.14844 13.1903 0
      vertex 3.72515 13.459 6
    endloop
  endfacet
  facet normal 0.535828 0.844327 -0
    outer loop
      vertex 3.72515 13.459 6
      vertex 4.14844 13.1903 0
      vertex 3.72515 13.459 0
    endloop
  endfacet
  facet normal 0.728968 0.684548 0
    outer loop
      vertex 3.38197 13.8244 6
      vertex 3.72515 13.459 6
      vertex 3.72515 13.459 0
    endloop
  endfacet
  facet normal 0.728968 0.684548 0
    outer loop
      vertex 3.38197 13.8244 0
      vertex 3.38197 13.8244 6
      vertex 3.72515 13.459 0
    endloop
  endfacet
  facet normal 0.876307 0.481753 0
    outer loop
      vertex 3.14045 14.2638 6
      vertex 3.38197 13.8244 6
      vertex 3.38197 13.8244 0
    endloop
  endfacet
  facet normal 0.876307 0.481753 0
    outer loop
      vertex 3.14045 14.2638 0
      vertex 3.14045 14.2638 6
      vertex 3.38197 13.8244 0
    endloop
  endfacet
  facet normal 0.968583 0.248689 0
    outer loop
      vertex 3.01577 14.7493 6
      vertex 3.14045 14.2638 6
      vertex 3.14045 14.2638 0
    endloop
  endfacet
  facet normal 0.968583 0.248689 0
    outer loop
      vertex 3.01577 14.7493 0
      vertex 3.01577 14.7493 6
      vertex 3.14045 14.2638 0
    endloop
  endfacet
  facet normal 0.968583 -0.248689 0
    outer loop
      vertex 53.1404 15.7362 0
      vertex 53.1404 15.7362 6
      vertex 53.0158 15.2507 6
    endloop
  endfacet
  facet normal 0.968583 -0.248689 0
    outer loop
      vertex 53.0158 15.2507 0
      vertex 53.1404 15.7362 0
      vertex 53.0158 15.2507 6
    endloop
  endfacet
  facet normal 1 0 0
    outer loop
      vertex 53.0158 15.2507 0
      vertex 53.0158 15.2507 6
      vertex 53.0158 14.7493 6
    endloop
  endfacet
  facet normal 1 0 0
    outer loop
      vertex 53.0158 14.7493 0
      vertex 53.0158 15.2507 0
      vertex 53.0158 14.7493 6
    endloop
  endfacet
  facet normal 0.876307 -0.481753 0
    outer loop
      vertex 53.382 16.1756 0
      vertex 53.382 16.1756 6
      vertex 53.1404 15.7362 6
    endloop
  endfacet
  facet normal 0.876307 -0.481753 0
    outer loop
      vertex 53.1404 15.7362 0
      vertex 53.382 16.1756 0
      vertex 53.1404 15.7362 6
    endloop
  endfacet
  facet normal 0.728968 -0.684548 0
    outer loop
      vertex 53.7252 16.541 0
      vertex 53.7252 16.541 6
      vertex 53.382 16.1756 6
    endloop
  endfacet
  facet normal 0.728968 -0.684548 0
    outer loop
      vertex 53.382 16.1756 0
      vertex 53.7252 16.541 0
      vertex 53.382 16.1756 6
    endloop
  endfacet
  facet normal 0.535828 -0.844327 0
    outer loop
      vertex 54.1484 16.8097 0
      vertex 54.1484 16.8097 6
      vertex 53.7252 16.541 6
    endloop
  endfacet
  facet normal 0.535828 -0.844327 0
    outer loop
      vertex 53.7252 16.541 0
      vertex 54.1484 16.8097 0
      vertex 53.7252 16.541 6
    endloop
  endfacet
  facet normal 0.309018 -0.951056 0
    outer loop
      vertex 54.6252 16.9646 0
      vertex 54.6252 16.9646 6
      vertex 54.1484 16.8097 6
    endloop
  endfacet
  facet normal 0.309018 -0.951056 0
    outer loop
      vertex 54.1484 16.8097 0
      vertex 54.6252 16.9646 0
      vertex 54.1484 16.8097 6
    endloop
  endfacet
  facet normal 0.0627886 -0.998027 0
    outer loop
      vertex 55.1256 16.9961 0
      vertex 55.1256 16.9961 6
      vertex 54.6252 16.9646 6
    endloop
  endfacet
  facet normal 0.0627886 -0.998027 0
    outer loop
      vertex 54.6252 16.9646 0
      vertex 55.1256 16.9961 0
      vertex 54.6252 16.9646 6
    endloop
  endfacet
  facet normal -0.18738 -0.982287 -0
    outer loop
      vertex 55.618 16.9021 0
      vertex 55.618 16.9021 6
      vertex 55.1256 16.9961 6
    endloop
  endfacet
  facet normal -0.18738 -0.982287 -0
    outer loop
      vertex 55.1256 16.9961 0
      vertex 55.618 16.9021 0
      vertex 55.1256 16.9961 6
    endloop
  endfacet
  facet normal -0.425779 -0.904827 -0
    outer loop
      vertex 56.0717 16.6887 0
      vertex 56.0717 16.6887 6
      vertex 55.618 16.9021 6
    endloop
  endfacet
  facet normal -0.425779 -0.904827 -0
    outer loop
      vertex 55.618 16.9021 0
      vertex 56.0717 16.6887 0
      vertex 55.618 16.9021 6
    endloop
  endfacet
  facet normal -0.637425 -0.770512 -0
    outer loop
      vertex 56.4579 16.3691 0
      vertex 56.4579 16.3691 6
      vertex 56.0717 16.6887 6
    endloop
  endfacet
  facet normal -0.637425 -0.770512 -0
    outer loop
      vertex 56.0717 16.6887 0
      vertex 56.4579 16.3691 0
      vertex 56.0717 16.6887 6
    endloop
  endfacet
  facet normal -0.809017 -0.587785 0
    outer loop
      vertex 56.7526 15.9635 6
      vertex 56.4579 16.3691 6
      vertex 56.7526 15.9635 0
    endloop
  endfacet
  facet normal -0.809017 -0.587785 0
    outer loop
      vertex 56.7526 15.9635 0
      vertex 56.4579 16.3691 6
      vertex 56.4579 16.3691 0
    endloop
  endfacet
  facet normal -0.929776 -0.368125 0
    outer loop
      vertex 56.9372 15.4974 6
      vertex 56.7526 15.9635 6
      vertex 56.9372 15.4974 0
    endloop
  endfacet
  facet normal -0.929776 -0.368125 0
    outer loop
      vertex 56.9372 15.4974 0
      vertex 56.7526 15.9635 6
      vertex 56.7526 15.9635 0
    endloop
  endfacet
  facet normal -0.992115 -0.125334 0
    outer loop
      vertex 57 15 6
      vertex 56.9372 15.4974 6
      vertex 57 15 0
    endloop
  endfacet
  facet normal -0.992115 -0.125334 0
    outer loop
      vertex 57 15 0
      vertex 56.9372 15.4974 6
      vertex 56.9372 15.4974 0
    endloop
  endfacet
  facet normal -0.992115 0.125334 0
    outer loop
      vertex 57 15 6
      vertex 57 15 0
      vertex 56.9372 14.5026 6
    endloop
  endfacet
  facet normal -0.992115 0.125334 0
    outer loop
      vertex 56.9372 14.5026 6
      vertex 57 15 0
      vertex 56.9372 14.5026 0
    endloop
  endfacet
  facet normal -0.929776 0.368125 0
    outer loop
      vertex 56.9372 14.5026 6
      vertex 56.9372 14.5026 0
      vertex 56.7526 14.0365 6
    endloop
  endfacet
  facet normal -0.929776 0.368125 0
    outer loop
      vertex 56.7526 14.0365 6
      vertex 56.9372 14.5026 0
      vertex 56.7526 14.0365 0
    endloop
  endfacet
  facet normal -0.809017 0.587785 0
    outer loop
      vertex 56.7526 14.0365 6
      vertex 56.7526 14.0365 0
      vertex 56.4579 13.6309 6
    endloop
  endfacet
  facet normal -0.809017 0.587785 0
    outer loop
      vertex 56.4579 13.6309 6
      vertex 56.7526 14.0365 0
      vertex 56.4579 13.6309 0
    endloop
  endfacet
  facet normal -0.637425 0.770512 0
    outer loop
      vertex 56.4579 13.6309 6
      vertex 56.4579 13.6309 0
      vertex 56.0717 13.3113 6
    endloop
  endfacet
  facet normal -0.637425 0.770512 0
    outer loop
      vertex 56.0717 13.3113 6
      vertex 56.4579 13.6309 0
      vertex 56.0717 13.3113 0
    endloop
  endfacet
  facet normal -0.425779 0.904827 0
    outer loop
      vertex 56.0717 13.3113 6
      vertex 56.0717 13.3113 0
      vertex 55.618 13.0979 6
    endloop
  endfacet
  facet normal -0.425779 0.904827 0
    outer loop
      vertex 55.618 13.0979 6
      vertex 56.0717 13.3113 0
      vertex 55.618 13.0979 0
    endloop
  endfacet
  facet normal -0.18738 0.982287 0
    outer loop
      vertex 55.618 13.0979 6
      vertex 55.618 13.0979 0
      vertex 55.1256 13.0039 6
    endloop
  endfacet
  facet normal -0.18738 0.982287 0
    outer loop
      vertex 55.1256 13.0039 6
      vertex 55.618 13.0979 0
      vertex 55.1256 13.0039 0
    endloop
  endfacet
  facet normal 0.0627886 0.998027 -0
    outer loop
      vertex 55.1256 13.0039 6
      vertex 55.1256 13.0039 0
      vertex 54.6252 13.0354 6
    endloop
  endfacet
  facet normal 0.0627886 0.998027 -0
    outer loop
      vertex 54.6252 13.0354 6
      vertex 55.1256 13.0039 0
      vertex 54.6252 13.0354 0
    endloop
  endfacet
  facet normal 0.309018 0.951056 -0
    outer loop
      vertex 54.6252 13.0354 6
      vertex 54.6252 13.0354 0
      vertex 54.1484 13.1903 6
    endloop
  endfacet
  facet normal 0.309018 0.951056 -0
    outer loop
      vertex 54.1484 13.1903 6
      vertex 54.6252 13.0354 0
      vertex 54.1484 13.1903 0
    endloop
  endfacet
  facet normal 0.535828 0.844327 -0
    outer loop
      vertex 54.1484 13.1903 6
      vertex 54.1484 13.1903 0
      vertex 53.7252 13.459 6
    endloop
  endfacet
  facet normal 0.535828 0.844327 -0
    outer loop
      vertex 53.7252 13.459 6
      vertex 54.1484 13.1903 0
      vertex 53.7252 13.459 0
    endloop
  endfacet
  facet normal 0.728968 0.684548 0
    outer loop
      vertex 53.382 13.8244 6
      vertex 53.7252 13.459 6
      vertex 53.7252 13.459 0
    endloop
  endfacet
  facet normal 0.728968 0.684548 0
    outer loop
      vertex 53.382 13.8244 0
      vertex 53.382 13.8244 6
      vertex 53.7252 13.459 0
    endloop
  endfacet
  facet normal 0.876307 0.481753 0
    outer loop
      vertex 53.1404 14.2638 6
      vertex 53.382 13.8244 6
      vertex 53.382 13.8244 0
    endloop
  endfacet
  facet normal 0.876307 0.481753 0
    outer loop
      vertex 53.1404 14.2638 0
      vertex 53.1404 14.2638 6
      vertex 53.382 13.8244 0
    endloop
  endfacet
  facet normal 0.968583 0.248689 0
    outer loop
      vertex 53.0158 14.7493 6
      vertex 53.1404 14.2638 6
      vertex 53.1404 14.2638 0
    endloop
  endfacet
  facet normal 0.968583 0.248689 0
    outer loop
      vertex 53.0158 14.7493 0
      vertex 53.0158 14.7493 6
      vertex 53.1404 14.2638 0
    endloop
  endfacet
endsolid OpenSCAD_Model
